<svg version="1.1" id="Layer_1" xmlns="http://www.w3.org/2000/svg" xmlns:xlink="http://www.w3.org/1999/xlink" x="0px" y="0px"
	 width="100%" viewBox="0 0 1024 1024" enable-background="new 0 0 1024 1024" xml:space="preserve">
<path fill="#000000" opacity="1.000000" stroke="none" 
	d="
M411.176514,666.056580 
	C376.218048,658.823547 346.356354,642.744812 321.329651,618.022888 
	C304.305603,601.206116 291.904297,581.504028 287.365173,557.537842 
	C283.240601,535.760437 287.203735,515.134094 296.685699,495.454163 
	C311.166016,465.400146 328.856140,437.127930 345.556824,408.309021 
	C353.909210,393.896118 362.276642,379.491882 370.674225,365.105255 
	C372.187744,362.512329 373.012848,360.212128 370.779938,357.407104 
	C352.659607,334.644012 358.204926,300.158478 387.367035,281.412170 
	C403.327698,271.152191 421.369293,266.413574 439.711792,262.666321 
	C454.060303,259.735077 468.604706,258.213196 483.177277,257.090088 
	C487.832458,256.731293 489.224518,254.825348 488.701752,250.465424 
	C487.099426,237.101486 485.535156,223.731110 484.162323,210.342072 
	C482.874298,197.780441 480.713593,185.288116 480.694061,172.618317 
	C480.666809,154.954361 493.256653,141.702530 512.028137,141.152802 
	C528.996277,140.655884 541.439941,151.443924 544.375916,167.272232 
	C546.088318,176.503983 543.566956,185.476471 542.712097,194.526276 
	C540.882751,213.893219 538.622986,233.219849 536.485107,252.556961 
	C536.133667,255.735474 537.770752,256.537811 540.526611,256.829254 
	C554.070740,258.261658 567.680054,259.229004 581.090637,261.705078 
	C601.652039,265.501404 621.779419,270.607880 639.354553,282.703827 
	C664.518555,300.022736 672.785095,332.368805 654.524536,356.914948 
	C652.230225,359.999023 652.627747,362.499359 654.393616,365.526428 
	C671.600403,395.021790 688.891174,424.470123 705.826965,454.120972 
	C716.059387,472.035706 726.759399,489.753906 733.570374,509.408173 
	C744.523621,541.015564 738.718018,570.360901 720.293335,597.233215 
	C693.185120,636.770264 654.316406,658.167358 608.019165,667.259155 
	C571.101746,674.509033 533.793274,677.250977 496.230194,676.017456 
	C467.764008,675.082520 439.484344,672.120728 411.176514,666.056580 
M493.636200,350.665833 
	C510.940460,350.580078 528.241089,351.251709 545.540649,349.733002 
	C565.644470,347.968140 585.581116,345.448822 604.614685,338.409088 
	C613.338501,335.182556 622.153870,331.763641 628.567810,324.505096 
	C634.505310,317.785828 634.347961,311.074127 628.375916,304.410370 
	C625.440857,301.135406 621.865051,298.666290 617.996948,296.701263 
	C592.633911,283.816833 564.950989,281.075226 537.263855,278.402893 
	C534.921204,278.176819 533.531799,279.169861 533.295532,281.746765 
	C532.718750,288.037964 532.107239,294.330780 531.280518,300.592651 
	C530.730042,304.762512 532.685059,306.256683 536.480164,306.649445 
	C541.766052,307.196472 547.045288,307.871887 552.293823,308.704010 
	C567.746277,311.153900 583.146301,313.857910 597.478027,320.571014 
	C599.500732,321.518433 601.953064,322.072144 602.626343,324.818451 
	C602.311646,325.248199 602.110535,325.811981 601.727600,325.994751 
	C600.230408,326.709412 598.711060,327.411957 597.136963,327.926025 
	C579.930054,333.545929 562.103577,335.818268 544.180359,337.261353 
	C519.397583,339.256744 494.602173,338.910706 469.876648,336.245331 
	C455.317291,334.675903 440.854340,332.451538 426.994965,327.411072 
	C425.343201,326.810303 422.954468,326.698334 422.883453,324.430054 
	C422.815155,322.247681 425.140839,321.721069 426.712128,320.968567 
	C433.646759,317.647552 440.972717,315.425812 448.438110,313.673157 
	C461.884033,310.516449 475.400818,307.774139 489.195099,306.567474 
	C491.519806,306.364105 494.605774,306.431915 494.221161,302.583954 
	C493.592682,296.296570 492.766541,290.025574 492.290436,283.727509 
	C491.946289,279.175049 489.691559,277.865601 485.392365,278.341156 
	C467.028046,280.372437 448.688599,282.628448 430.831696,287.512360 
	C418.920807,290.770020 407.231964,294.789032 397.736328,303.240112 
	C390.678711,309.521362 389.968323,315.962952 395.770111,323.381470 
	C400.870117,329.902679 408.168335,333.381622 415.549530,336.481415 
	C440.205505,346.835693 466.457153,348.693695 493.636200,350.665833 
M619.327148,421.173340 
	C614.505920,419.334900 609.633484,417.809998 604.503540,416.903931 
	C566.487549,410.189819 532.905945,447.580505 543.888306,484.448151 
	C544.801208,487.512848 546.298462,489.619995 549.266846,491.122192 
	C565.040833,499.104919 577.469299,510.500305 584.645081,526.983826 
	C585.787109,529.607117 587.461182,530.589722 590.332642,530.823853 
	C604.898804,532.011597 618.158142,528.473999 629.826660,519.779480 
	C646.427185,507.410004 655.549133,490.680084 654.277283,469.965057 
	C652.883911,447.272369 640.263489,431.398804 619.327148,421.173340 
M392.718231,428.197113 
	C389.722961,431.085083 386.477020,433.757568 383.776642,436.899017 
	C373.232239,449.165802 368.611450,463.547913 370.639526,479.528015 
	C374.636963,511.025604 402.817474,533.029846 432.408173,530.833252 
	C436.338287,530.541443 438.850861,529.685547 440.519165,525.854431 
	C447.348450,510.171356 459.326752,499.412079 474.334839,491.872742 
	C477.833801,490.114990 479.658356,487.686981 480.603180,484.100067 
	C486.846069,460.398468 477.196198,436.364563 455.761200,424.126953 
	C434.329926,411.891449 413.378723,414.019348 392.718231,428.197113 
M550.736450,519.761963 
	C534.528442,504.776276 515.797791,500.431427 494.808228,507.119110 
	C476.448456,512.968994 464.208496,525.273376 461.624390,544.569336 
	C458.976318,564.343262 468.534210,579.177734 485.174561,589.016663 
	C499.730896,597.623291 515.621582,598.358398 531.418884,592.640137 
	C561.708862,581.675964 575.461975,546.342407 550.736450,519.761963 
M631.424866,347.058105 
	C623.677795,351.348724 615.517700,354.673492 607.100952,357.378448 
	C581.385193,365.642975 554.806030,368.873810 528.002258,370.025513 
	C498.333221,371.300323 468.797760,369.369965 439.663727,363.242676 
	C420.822327,359.280090 402.594360,353.603119 386.634644,342.279144 
	C384.720154,340.920776 382.848297,339.502319 380.217682,337.568451 
	C380.923859,343.486053 382.464783,347.934601 385.469910,351.865143 
	C392.748047,361.384552 402.825104,366.728638 413.781799,370.652740 
	C437.201202,379.040466 461.671448,382.085083 486.259186,383.457825 
	C521.569824,385.429169 556.794250,384.066864 591.524658,376.528320 
	C606.090332,373.366760 620.165894,368.770569 632.229675,359.595306 
	C638.879395,354.537750 643.723022,348.245819 644.143738,338.834686 
	C639.821655,341.642090 635.940308,344.163208 631.424866,347.058105 
M677.035706,580.498108 
	C664.985046,594.297729 649.133972,601.061401 631.752563,605.055908 
	C624.376465,606.751099 620.553223,610.603333 621.530640,615.036682 
	C622.567444,619.739441 628.318848,622.139526 635.338928,620.340515 
	C643.388184,618.277710 651.366821,615.946716 658.976135,612.482788 
	C691.090210,597.863892 714.001831,564.672668 706.721069,525.297180 
	C706.176025,522.349487 705.708008,519.363342 704.231689,516.710083 
	C702.551453,513.690552 700.380188,510.851807 696.476379,511.699921 
	C692.607178,512.540466 690.914673,515.735413 690.481445,519.456360 
	C690.313782,520.896240 690.651917,522.425659 690.928833,523.882080 
	C694.867126,544.594116 691.843811,563.625183 677.035706,580.498108 
M346.958344,577.498779 
	C340.565186,569.500000 335.226715,561.018738 333.055328,550.754211 
	C331.152588,541.759766 331.899109,532.902039 333.303497,523.993958 
	C334.043579,519.299438 331.999847,515.370728 328.318085,514.319702 
	C324.112000,513.119080 320.733582,515.253906 318.954498,520.312439 
	C318.458801,521.721802 318.043396,523.173950 317.751709,524.638428 
	C312.167206,552.677368 322.709686,575.091675 342.145599,594.380859 
	C342.726562,594.957458 343.480927,595.373535 344.191803,595.802490 
	C347.536041,597.820618 350.848785,598.179871 353.666168,595.010437 
	C356.500824,591.821594 356.488770,588.332947 353.805878,585.052551 
	C351.807465,582.609070 349.556396,580.372192 346.958344,577.498779 
M501.148224,170.571381 
	C502.835266,173.472870 505.200592,174.153717 508.300110,172.927750 
	C512.410889,171.301834 517.250671,170.396530 518.553040,165.379761 
	C519.456665,161.899033 517.226440,159.709351 513.798889,159.186249 
	C508.190521,158.330307 501.365631,164.098907 501.148224,170.571381 
M501.736572,190.031479 
	C503.543488,187.645767 503.323547,185.385239 500.973389,183.612778 
	C499.383545,182.413757 497.573059,182.497864 496.048920,183.994385 
	C494.451416,185.562912 493.988770,187.308228 495.347046,189.276794 
	C496.908752,191.540161 498.818939,192.166382 501.736572,190.031479 
z"/>
<path fill="#000000" opacity="1.000000" stroke="none" 
	d="
M445.283508,686.632568 
	C467.754486,688.945374 489.846985,690.538635 511.969421,690.499329 
	C550.482605,690.430969 588.747559,687.213318 626.414612,678.717957 
	C640.719604,675.491699 654.784302,671.479858 667.708679,664.197815 
	C672.710022,661.379822 676.906555,657.632751 681.118530,653.849243 
	C686.996765,648.568970 693.568970,649.701843 696.788452,656.934387 
	C698.832092,661.525269 699.877258,666.179871 705.179382,668.917786 
	C707.999084,670.373840 709.374634,674.697388 711.297424,677.791626 
	C712.351990,679.488831 711.494446,681.221680 710.437744,682.399475 
	C704.429382,689.096375 697.271545,694.709351 691.944641,702.067627 
	C690.985168,703.393005 689.917603,703.265015 688.788696,701.763184 
	C687.460510,699.996216 685.020264,699.157837 683.448853,700.581482 
	C681.327637,702.503174 678.320190,701.959778 676.875549,702.924377 
	C672.960083,705.538757 667.583069,703.253540 664.403870,707.477844 
	C663.072388,709.246948 660.949036,706.649902 658.687195,707.881226 
	C651.279419,711.914246 642.750977,713.006897 634.853210,715.922424 
	C630.142395,717.661499 624.645020,717.514099 619.548828,718.753845 
	C617.872253,719.161743 616.289246,720.214233 614.173096,720.122375 
	C612.837280,718.430786 611.882507,715.356689 608.750000,719.145630 
	C606.995178,721.268127 603.247681,719.833191 600.494995,720.059143 
	C597.812561,720.279419 595.575378,720.217834 593.637085,722.273926 
	C591.936707,724.077637 589.800293,722.767578 588.015503,722.575684 
	C583.490540,722.089172 579.728333,724.671326 575.462708,725.164429 
	C573.508240,725.390259 573.294250,724.549805 572.942932,722.792786 
	C569.255188,727.063293 565.060730,726.615540 560.734375,724.238037 
	C560.435425,726.808838 560.018738,728.901428 557.345581,726.398987 
	C555.324707,724.507263 553.609619,724.203491 551.287781,726.123840 
	C547.848022,728.968811 544.193359,724.710571 540.427490,725.863037 
	C539.976929,726.000916 537.905396,725.999084 536.725891,725.747437 
	C529.472412,724.199890 522.248047,726.500061 514.848572,725.662720 
	C510.844849,725.209717 505.701508,722.619446 501.176331,726.009033 
	C500.562592,726.468811 497.136536,724.698364 496.588470,723.329590 
	C495.926147,721.675537 495.334747,722.184814 494.590088,722.533752 
	C490.223602,724.579590 485.370209,722.925171 481.015686,724.309082 
	C478.553345,725.091675 476.298767,723.939880 474.067932,723.936401 
	C468.873749,723.928284 463.920563,726.038086 458.166992,724.070923 
	C452.840973,722.250000 446.191010,719.200500 440.054077,723.913635 
	C438.969147,724.746826 436.695312,724.031921 434.101532,724.031921 
	C435.547028,722.456238 436.521301,721.394226 437.640259,720.174500 
	C434.041565,718.248352 432.734344,721.435547 430.240540,723.101624 
	C430.396820,717.251221 426.001465,717.196655 423.093781,718.286621 
	C418.420441,720.038574 415.071411,716.840210 411.038605,716.479187 
	C405.280334,715.963623 399.813538,713.837830 393.732666,714.256226 
	C389.477783,714.549072 384.179199,713.828003 380.950745,711.414307 
	C376.604706,708.165100 371.795868,708.568542 367.332397,707.521423 
	C361.535614,706.161621 355.470764,704.272827 349.235992,706.195007 
	C347.987762,706.579834 346.587830,705.332397 346.380737,703.898132 
	C346.039856,701.537964 343.323761,701.343567 342.791748,701.629272 
	C338.296570,704.043091 334.871796,699.757324 330.814270,700.022034 
	C330.504608,700.042114 330.047699,699.944702 329.882690,699.730164 
	C325.371155,693.864136 316.768372,694.354370 312.308258,688.398560 
	C311.318848,687.077332 309.532715,685.902588 310.039307,684.182190 
	C310.734741,681.820557 308.945099,680.996094 307.663757,679.299072 
	C312.916901,677.787537 315.302765,672.911072 319.454376,670.190552 
	C324.271362,667.034119 326.031250,662.029968 328.152466,657.004395 
	C331.204620,649.773132 337.721588,648.550720 343.325317,653.896729 
	C356.748596,666.702454 373.672150,672.020203 390.949951,676.803223 
	C408.630005,681.697510 426.822083,683.623779 445.283508,686.632568 
z"/>
<path fill="#000000" opacity="1.000000" stroke="none" 
	d="
M503.803406,799.090637 
	C502.658142,796.271362 501.474243,793.857239 500.733124,791.314087 
	C498.451996,783.486389 501.311981,777.322937 508.280823,774.645142 
	C515.960632,771.694031 522.874084,774.066284 526.348938,781.329956 
	C531.815735,792.757568 535.630981,804.858093 540.228333,816.641296 
	C540.939575,818.464172 541.303528,820.485840 543.557251,822.018433 
	C546.917480,815.758667 548.385376,808.957886 550.726257,802.504395 
	C553.108276,795.937500 554.905029,789.170837 557.764893,782.761963 
	C560.338440,776.994812 564.882874,773.611816 570.869934,773.450745 
	C576.874573,773.289307 581.702393,776.372620 584.307556,782.167358 
	C584.659729,782.950745 585.096863,783.621704 586.874512,784.067627 
	C589.248474,777.708008 594.188354,773.789001 601.226196,773.467834 
	C608.489136,773.136353 613.354248,777.261536 616.562256,783.294678 
	C619.480164,783.138733 620.415344,780.865173 621.915161,779.467712 
	C627.867981,773.920837 634.533875,771.904602 642.570374,774.161865 
	C662.206299,779.677002 672.955261,795.654846 672.339722,818.798401 
	C671.910034,834.954285 656.919189,852.375061 640.125000,855.906921 
	C633.153870,857.372986 626.524902,856.473877 620.950195,851.405457 
	C620.014343,850.554626 619.256348,849.270630 617.644714,849.318909 
	C615.996765,850.697144 616.426636,852.629578 616.419739,854.386047 
	C616.391541,861.548645 616.598450,868.715393 616.421265,875.873291 
	C616.189819,885.220337 609.873535,891.435181 601.065857,891.325562 
	C592.781433,891.222473 586.721985,884.662231 586.690430,875.385803 
	C586.617920,854.057739 586.746765,832.729004 586.664307,811.401062 
	C586.636780,804.288330 587.221619,797.135925 585.179810,789.798096 
	C582.834534,795.864014 580.424438,801.905762 578.155884,808.000244 
	C570.838440,827.658875 563.519836,847.317383 556.307678,867.014771 
	C551.913086,879.017090 544.750671,888.488953 532.289795,892.736328 
	C520.924622,896.610107 510.228638,895.227844 501.169006,886.733704 
	C496.323822,882.190979 494.626617,874.384827 497.262665,868.790222 
	C499.928864,863.131592 504.698547,860.515442 510.920074,860.357788 
	C513.737793,860.286316 516.041321,861.730347 518.484924,862.708496 
	C521.569946,863.943298 524.275452,863.807800 526.802307,861.482849 
	C529.336609,859.151184 528.338257,856.523621 527.314697,854.106689 
	C519.587891,835.859802 511.762146,817.654846 503.803406,799.090637 
M638.541260,803.916931 
	C638.004211,803.528198 637.488708,803.104736 636.926819,802.756104 
	C629.900146,798.396545 622.175903,800.360168 617.752930,807.620239 
	C613.609192,814.421936 615.966064,823.740417 622.917297,828.039551 
	C628.803162,831.679626 637.741028,829.294189 641.665771,823.035706 
	C645.243042,817.331360 644.271301,810.277527 638.541260,803.916931 
z"/>
<path fill="#000000" opacity="1.000000" stroke="none" 
	d="
M266.002563,800.116577 
	C266.241425,794.809448 266.353027,789.977539 266.724609,785.165649 
	C267.263916,778.182129 272.461945,773.878845 280.507843,773.534485 
	C287.474457,773.236328 292.531738,777.056213 293.467834,783.881653 
	C294.830139,793.815491 293.751282,803.835632 294.087128,813.811157 
	C294.192383,816.937195 293.792664,820.220520 296.017487,822.896484 
	C299.124939,826.633972 302.938782,828.642700 307.893707,827.279297 
	C312.673279,825.964172 315.519165,822.048096 315.599762,816.282166 
	C315.734802,806.623291 316.274811,796.909851 315.493958,787.312988 
	C314.427704,774.209473 327.628021,770.338074 335.533264,775.965698 
	C338.578613,778.133667 340.632233,778.070862 343.783173,775.882996 
	C350.033295,771.543396 358.161896,773.131165 363.123230,778.915405 
	C363.866486,779.781982 364.646179,780.617310 365.561890,781.637329 
	C369.351501,779.663696 371.805206,776.104736 375.860138,774.673645 
	C393.836426,768.329712 414.796448,783.050842 415.277557,802.795776 
	C415.585815,815.446960 415.402313,828.112061 415.323364,840.770203 
	C415.270447,849.255798 409.730377,854.950928 401.403992,855.341980 
	C393.301178,855.722534 387.799866,850.738098 386.933594,842.118408 
	C386.734497,840.137329 386.825348,838.124939 386.819061,836.126892 
	C386.791931,827.465698 386.910492,818.801514 386.711456,810.144470 
	C386.585968,804.685547 382.152740,800.051880 377.150879,799.590149 
	C373.134674,799.219482 368.430786,802.930969 367.048218,807.802002 
	C366.557495,809.531006 366.401215,811.402283 366.386414,813.211060 
	C366.314148,822.038452 366.346527,830.866638 366.331970,839.694580 
	C366.317963,848.194397 362.692596,853.201050 355.109985,855.217163 
	C348.332489,857.019165 341.826691,853.994934 337.978363,847.254211 
	C337.580261,846.556885 337.177673,845.862061 336.513397,844.707642 
	C329.981842,849.406250 323.548126,853.627258 315.792023,855.595886 
	C290.552643,862.001892 266.505127,844.060425 265.959503,818.085022 
	C265.837128,812.259705 265.973999,806.429016 266.002563,800.116577 
z"/>
<path fill="#000000" opacity="1.000000" stroke="none" 
	d="
M233.196991,828.987671 
	C233.191528,832.314392 233.226273,835.145996 233.160248,837.975159 
	C232.912003,848.612610 225.854660,856.221497 216.400330,856.086426 
	C207.720490,855.962402 201.764603,848.698730 201.750397,837.996277 
	C201.720535,815.511292 201.763519,793.026123 201.790787,770.541077 
	C201.796463,765.862244 202.420914,761.249390 203.646164,756.739868 
	C207.716934,741.757751 220.852097,731.731323 236.455368,731.675476 
	C245.116379,731.644470 253.778107,731.612610 262.438599,731.687378 
	C271.916931,731.769165 278.866760,737.670227 279.352386,745.901978 
	C279.885651,754.941162 274.431641,761.466370 264.497620,762.539124 
	C257.573669,763.286804 250.533752,762.927490 243.548309,763.147888 
	C235.438080,763.403687 230.120697,772.435303 233.647507,779.833679 
	C234.700684,782.043091 236.658951,781.683228 238.411621,781.447083 
	C241.744995,780.997925 245.017609,780.949585 248.342041,781.589600 
	C256.450989,783.150635 261.554871,789.107971 261.264954,796.850647 
	C261.005035,803.792175 254.349518,810.595581 246.944550,811.244934 
	C243.801758,811.520447 240.616028,811.465454 237.457230,811.352722 
	C234.452194,811.245605 233.227524,812.558533 233.266632,815.501099 
	C233.324158,819.830078 233.223938,824.161255 233.196991,828.987671 
z"/>
<path fill="#000000" opacity="1.000000" stroke="none" 
	d="
M343.552063,384.524780 
	C339.501709,391.066528 335.617279,397.282410 331.807892,403.544006 
	C330.125153,406.309998 328.274780,406.893829 325.188812,405.339813 
	C320.745850,403.102417 315.873627,401.718597 311.425842,399.489227 
	C304.394073,395.964752 301.931396,389.993774 304.284637,383.354492 
	C306.281769,377.719971 313.216248,374.010803 319.774506,374.987946 
	C322.077087,375.331024 325.066193,377.183380 326.320648,373.861969 
	C327.681213,370.259552 325.214539,367.918823 322.286957,366.216003 
	C313.795746,361.276947 300.817749,364.433105 294.607056,372.919434 
	C286.544678,383.935913 287.907196,397.158203 298.155914,406.672119 
	C302.500275,410.705048 307.580841,413.400940 313.304871,415.068359 
	C321.557892,417.472443 322.652008,420.278900 318.615387,427.583801 
	C317.568268,429.478668 316.583923,431.408234 315.570923,433.321960 
	C311.469635,441.069824 310.855865,441.462494 302.757599,438.902039 
	C282.910522,432.626862 268.585754,420.298431 264.377899,399.398163 
	C258.009552,367.766815 279.020477,340.649658 311.280609,339.045990 
	C322.407135,338.492859 333.048737,341.727142 341.857574,349.292664 
	C352.779724,358.673126 354.183167,367.342316 346.702972,379.581635 
	C345.747559,381.144897 344.734741,382.673065 343.552063,384.524780 
z"/>
<path fill="#000000" opacity="1.000000" stroke="none" 
	d="
M686.504883,393.445923 
	C683.343323,388.315735 680.411377,383.470032 677.362976,378.698822 
	C670.812378,368.445892 670.468750,361.323334 681.586487,350.904327 
	C694.871826,338.454010 711.218506,336.286560 728.203369,341.791382 
	C745.828796,347.503784 756.363831,360.171448 760.233337,378.192169 
	C766.291870,406.407074 747.760742,432.598389 718.738464,439.859161 
	C715.198669,440.744751 712.935974,439.573853 711.257935,436.626465 
	C709.280701,433.153656 707.259277,429.703979 705.367920,426.184662 
	C702.509583,420.865967 703.560852,417.818329 709.449463,415.923981 
	C714.578735,414.273987 719.406494,412.253693 723.736145,409.005157 
	C732.735657,402.252777 737.034912,391.946198 734.255676,382.339600 
	C731.113098,371.477142 723.600403,365.315460 712.466980,363.756866 
	C707.389099,363.045990 702.955017,364.809723 699.402100,368.541748 
	C697.841736,370.180786 697.811951,372.240387 698.645264,374.149933 
	C699.590088,376.314972 701.465454,375.243225 703.020142,374.977905 
	C705.868225,374.491913 708.642639,374.708099 711.412354,375.531952 
	C716.884766,377.159698 720.280823,380.752411 721.240784,386.334351 
	C722.224060,392.052063 719.260620,396.190247 714.570068,398.634888 
	C709.133484,401.468262 703.282654,403.509003 697.601501,405.869385 
	C695.455261,406.761139 694.085022,405.590057 693.028625,403.933105 
	C690.880615,400.564087 688.793823,397.156067 686.504883,393.445923 
z"/>
<path fill="#000000" opacity="1.000000" stroke="none" 
	d="
M490.165344,847.100586 
	C476.487671,858.576904 456.587463,860.009888 441.370300,850.861450 
	C426.072937,841.664856 417.693573,823.594482 421.253265,807.478821 
	C425.500549,788.250244 439.009979,775.651978 457.638336,773.548035 
	C476.955261,771.366211 492.985931,780.824768 498.267395,797.520264 
	C501.265228,806.996887 498.598907,813.860596 489.587891,818.181091 
	C480.131165,822.715332 470.469940,826.843018 459.750000,827.454956 
	C458.784180,827.510132 457.838165,827.911987 456.783386,828.177979 
	C459.798981,831.030457 464.622101,831.793701 470.047516,830.234619 
	C472.120911,829.638733 474.110168,828.752075 476.142639,828.011292 
	C482.020233,825.869385 488.359497,827.270874 491.564240,831.413513 
	C495.290009,836.229675 494.949310,840.816101 490.165344,847.100586 
M469.408936,802.621582 
	C470.309021,799.435120 467.608185,799.685120 465.989502,799.330383 
	C462.446960,798.553894 459.135895,799.611755 456.045654,801.345032 
	C454.631561,802.138123 452.786163,802.942078 453.174408,804.888916 
	C453.590485,806.975159 455.656403,806.700195 457.261169,806.770996 
	C461.601685,806.962708 465.077820,804.478027 469.408936,802.621582 
z"/>
<path fill="#000000" opacity="1.000000" stroke="none" 
	d="
M689.755798,845.251465 
	C672.537231,828.124573 672.243652,802.704285 688.814453,785.364014 
	C704.074524,769.395386 731.686401,768.686707 747.588867,783.855652 
	C764.964355,800.429688 765.695984,825.478394 749.327698,843.383728 
	C733.966003,860.187927 707.461182,861.136292 689.755798,845.251465 
M729.080566,825.601013 
	C734.449219,819.201660 735.114929,812.971619 731.067688,807.003479 
	C727.107666,801.163879 720.307312,798.734802 714.124817,800.986816 
	C708.432251,803.060303 705.217468,807.295044 704.417908,813.134277 
	C703.535461,819.578430 706.449646,824.395874 711.909851,827.661072 
	C717.785400,831.174622 723.316284,830.092346 729.080566,825.601013 
z"/>
<path fill="#000000" opacity="1.000000" stroke="none" 
	d="
M804.287842,812.936951 
	C803.006470,822.400269 806.109314,828.520630 815.182556,831.444092 
	C820.011841,833.000183 822.895630,836.996277 822.919006,842.077393 
	C822.943298,847.356140 820.416626,851.655457 815.680969,854.394531 
	C807.494080,859.129883 796.406311,857.088379 787.720398,849.191589 
	C778.588928,840.889832 775.022705,830.390686 775.455322,818.252502 
	C775.662781,812.431458 775.528992,806.598999 775.617126,800.772705 
	C775.672913,797.089722 774.151001,795.447205 770.269592,795.276550 
	C763.226257,794.966858 758.654663,789.622742 758.662598,782.347046 
	C758.670349,775.236938 762.440308,771.061584 770.182007,770.843506 
	C774.739624,770.715149 775.936768,768.966553 775.695923,764.835632 
	C775.434998,760.359192 775.458557,755.852478 775.618652,751.368225 
	C775.900879,743.468384 781.518372,737.958313 789.269104,737.737976 
	C797.279541,737.510132 803.889343,743.369873 804.258850,751.322083 
	C804.498230,756.473267 804.403564,761.644714 804.313599,766.804504 
	C804.265503,769.560364 805.366150,770.827637 808.151367,770.662964 
	C809.477600,770.584534 810.817688,770.626282 812.145630,770.708008 
	C819.287537,771.147705 823.969971,775.694275 824.119019,782.296692 
	C824.266541,788.826782 818.759521,794.762756 812.035278,795.321899 
	C804.307312,795.964417 804.306152,795.964355 804.291199,803.957764 
	C804.285889,806.788391 804.287476,809.618958 804.287842,812.936951 
z"/>
<path fill="#000000" opacity="1.000000" stroke="none" 
	d="
M250.277084,532.468384 
	C242.850113,536.415588 237.217361,535.050964 233.986420,527.809326 
	C229.582336,517.938232 223.677002,509.347809 216.165604,501.585510 
	C210.426514,495.654663 210.483551,489.673492 216.429504,484.577728 
	C224.290558,477.840698 229.298050,469.528442 233.052139,460.109467 
	C235.497070,453.975189 240.240723,451.005676 245.232925,451.804108 
	C249.590881,452.501099 252.468521,455.118469 253.925293,459.158752 
	C257.537140,469.176025 262.795258,477.978607 270.818115,485.238159 
	C275.380188,489.366241 276.142944,494.762787 272.439545,499.184967 
	C264.491058,508.676147 257.497894,518.643677 252.592270,530.039185 
	C252.223282,530.896301 251.248367,531.492554 250.277084,532.468384 
z"/>
<path fill="#000000" opacity="1.000000" stroke="none" 
	d="
M768.716309,463.794983 
	C769.741211,461.475494 770.510132,459.434753 771.584595,457.570099 
	C773.617920,454.041443 776.618652,451.733032 780.839966,451.787018 
	C785.231506,451.843140 788.352539,454.120239 790.253357,458.055267 
	C791.048706,459.701813 791.880859,461.340332 792.531372,463.045410 
	C795.546082,470.947876 800.084167,477.714233 806.352661,483.501434 
	C813.366089,489.976288 813.855713,496.232635 807.204041,502.988739 
	C799.940552,510.366394 794.532043,518.731079 790.375366,528.070007 
	C788.511353,532.257935 785.124023,534.731262 780.667480,534.797180 
	C775.963440,534.866760 772.458862,532.339233 770.673767,527.848083 
	C766.757874,517.995911 761.170471,509.318634 753.742859,501.662140 
	C747.915466,495.655243 748.238953,489.525482 754.695862,483.889160 
	C761.017090,478.371338 765.666687,471.932068 768.716309,463.794983 
z"/>
<path fill="#000000" opacity="1.000000" stroke="none" 
	d="
M597.635986,192.289185 
	C596.823425,188.110870 598.169434,184.934525 600.969788,182.534470 
	C606.832764,177.509644 610.686951,171.241364 613.210144,164.039200 
	C613.647766,162.789978 614.237671,161.581512 614.870056,160.415421 
	C616.747559,156.953659 619.561584,154.761383 623.609863,154.753845 
	C627.712708,154.746201 630.346375,157.214233 632.289001,160.548798 
	C632.872925,161.551071 633.361267,162.620026 633.791260,163.699142 
	C636.592529,170.729034 640.377502,176.997925 646.015869,182.267029 
	C651.611938,187.496552 651.760132,192.284134 646.615417,197.949463 
	C641.204834,203.907547 636.437561,210.154022 633.078735,217.532211 
	C631.213013,221.630600 628.064209,224.560043 622.991455,224.360687 
	C617.999023,224.164505 615.749878,220.767868 614.102966,216.779465 
	C611.259338,209.892715 606.979980,204.033539 601.697388,198.853409 
	C599.896667,197.087646 598.282959,195.207016 597.635986,192.289185 
z"/>
<path fill="#000000" opacity="1.000000" stroke="none" 
	d="
M418.882324,178.100784 
	C419.708771,178.956543 420.295929,179.546860 420.877197,180.142929 
	C428.947937,188.419724 429.039001,192.425125 420.975891,200.751251 
	C416.976105,204.881531 413.810822,209.484253 411.621399,214.777130 
	C410.529419,217.416977 409.161377,219.848022 407.028839,221.829285 
	C402.452179,226.081284 396.294189,226.104645 393.381958,220.667709 
	C388.559875,211.665085 383.120239,203.285187 376.393372,195.583099 
	C373.197510,191.924026 373.866821,186.705109 377.638000,183.407700 
	C384.273254,177.606033 388.227966,170.278900 391.381500,162.303177 
	C393.102295,157.951035 396.185699,154.849487 401.049896,154.878799 
	C405.912292,154.908066 408.804108,158.126038 410.691315,162.391953 
	C413.036743,167.693604 414.515533,173.449783 418.882324,178.100784 
z"/>
<path fill="#000000" opacity="1.000000" stroke="none" 
	d="
M262.826965,249.843658 
	C263.621979,247.246704 264.182373,244.967606 265.064056,242.820404 
	C266.555115,239.189178 269.563690,237.553619 273.337097,237.423843 
	C276.870819,237.302307 279.362823,239.176300 280.857513,242.257996 
	C281.797150,244.195343 282.635590,246.231857 283.149170,248.315155 
	C284.152893,252.386795 286.134949,255.347198 289.912415,257.626221 
	C296.315277,261.489197 296.469360,268.498016 290.189606,272.626160 
	C286.109589,275.308228 283.772339,278.698029 282.553772,283.207794 
	C282.166443,284.641479 281.627808,286.083618 280.883575,287.361877 
	C278.969635,290.649261 276.007629,292.401581 272.199310,292.176880 
	C268.661072,291.968109 266.491119,289.756744 265.301147,286.523865 
	C264.611755,284.651001 263.854126,282.795197 263.304016,280.880890 
	C262.336060,277.512451 260.423767,275.116058 257.333984,273.284271 
	C249.465134,268.619171 249.536682,262.116669 257.426331,257.083038 
	C260.082153,255.388580 262.128052,253.409393 262.826965,249.843658 
z"/>
<path fill="#000000" opacity="1.000000" stroke="none" 
	d="
M749.869812,237.245422 
	C754.951355,237.815918 757.132385,240.990555 758.145020,245.138000 
	C759.487366,250.635483 761.790894,255.099747 766.904053,258.387573 
	C772.341919,261.884216 772.309692,267.944489 766.952515,271.595490 
	C762.235107,274.810486 759.436584,278.831207 757.904419,284.176514 
	C756.616150,288.670929 753.680420,291.974243 748.730774,292.034668 
	C743.502930,292.098480 741.169128,288.159058 740.026123,283.802032 
	C738.696045,278.732056 736.304321,274.962982 731.718811,272.007446 
	C726.302002,268.516083 726.269592,261.742737 731.677734,258.309601 
	C736.780457,255.070312 739.274780,250.663834 740.560181,245.156540 
	C741.670349,240.400024 744.462097,237.562057 749.869812,237.245422 
z"/>
<path fill="#000000" opacity="1.000000" stroke="none" 
	d="
M752.306152,637.713989 
	C750.157959,635.272156 747.312805,635.223633 744.870728,634.278320 
	C741.307251,632.898926 738.870789,630.605896 738.800903,626.612915 
	C738.729309,622.528076 740.654846,619.277649 744.609802,618.278381 
	C750.087158,616.894348 753.027893,613.552734 754.615967,608.371277 
	C755.844666,604.362000 758.720215,601.827759 763.031494,601.804871 
	C767.580750,601.780701 770.500732,604.515198 771.824463,608.651733 
	C773.272095,613.175659 775.322144,616.559448 780.447205,617.861572 
	C784.155396,618.803772 786.718750,621.631042 786.570068,625.956360 
	C786.418457,630.365234 783.815491,633.106567 779.904602,634.325684 
	C776.140808,635.499023 773.559692,637.245850 772.367798,641.303406 
	C771.030945,645.854126 768.871338,650.303711 763.082397,650.219666 
	C757.077393,650.132507 755.241943,645.498047 753.702576,640.746582 
	C753.397888,639.806091 752.928894,638.918823 752.306152,637.713989 
z"/>
<path fill="#000000" opacity="1.000000" stroke="none" 
	d="
M264.427673,646.477661 
	C258.545776,649.992798 254.084229,649.031006 251.456604,643.235840 
	C249.234970,638.335999 246.783707,634.316833 241.244095,632.534729 
	C237.949600,631.474976 236.746368,628.191162 236.784073,624.812195 
	C236.818665,621.713135 238.409775,619.118835 241.276733,618.175598 
	C246.724686,616.383240 249.673981,612.555603 251.599869,607.480164 
	C253.125107,603.460632 256.085205,601.429565 260.499512,601.646606 
	C264.868744,601.861511 267.236450,604.621277 268.164398,608.376160 
	C269.338654,613.127686 272.036591,615.509094 276.690918,616.974792 
	C284.059937,619.295349 286.057129,627.823059 279.649384,630.891113 
	C272.349274,634.386353 268.288177,639.764648 264.427673,646.477661 
z"/>
<path fill="#000000" opacity="1.000000" stroke="none" 
	d="
M332.271576,275.611847 
	C330.156616,270.300964 328.041656,265.772034 322.951782,262.737335 
	C318.740021,260.226196 319.168396,253.449936 323.420288,250.834824 
	C327.738220,248.179138 330.056030,244.524109 331.399231,239.870071 
	C332.717712,235.301605 335.420471,232.110825 340.616180,232.336319 
	C345.598389,232.552551 347.898163,236.009781 349.010040,240.295319 
	C350.108948,244.530838 352.127808,247.681610 356.039093,250.052231 
	C361.259644,253.216446 361.705597,259.607910 356.606323,262.854706 
	C352.134613,265.701874 350.122223,269.550751 348.149719,274.032349 
	C344.807434,281.626007 337.928772,282.322388 332.271576,275.611847 
z"/>
<path fill="#000000" opacity="1.000000" stroke="none" 
	d="
M703.295532,257.771484 
	C703.124023,259.963440 702.204895,261.661957 700.867554,262.395905 
	C695.953674,265.092834 693.826660,269.581207 691.897156,274.472382 
	C690.451477,278.137024 687.488281,280.345917 683.335388,280.214050 
	C679.316711,280.086426 676.946350,277.566528 675.656006,274.056976 
	C674.019958,269.607361 671.953735,265.827209 667.631714,263.105347 
	C663.261597,260.353302 663.266174,254.200684 667.507690,251.179382 
	C671.530396,248.314011 674.109375,244.921509 675.484009,240.187103 
	C676.690125,236.033173 679.002991,232.654678 684.185608,232.659195 
	C689.585327,232.663895 691.857422,236.050461 693.046570,240.545120 
	C694.154968,244.734421 696.071533,248.187302 699.840088,250.601852 
	C702.182983,252.102966 703.593506,254.371246 703.295532,257.771484 
z"/>
<path fill="#000000" opacity="1.000000" stroke="none" 
	d="
M575.519775,483.425232 
	C566.835815,471.879272 568.145874,456.708282 578.303467,448.115448 
	C585.726440,441.835968 597.070862,440.500671 605.386658,444.927551 
	C614.295471,449.670135 619.496582,460.075348 618.419739,471.001282 
	C617.542969,479.897552 609.878601,488.440155 600.587463,491.091003 
	C590.701050,493.911682 582.686523,490.695770 575.519775,483.425232 
z"/>
<path fill="#000000" opacity="1.000000" stroke="none" 
	d="
M449.782166,452.378967 
	C459.287689,468.070221 453.799561,484.721069 437.620209,490.639587 
	C428.728027,493.892365 420.824097,492.037292 413.897644,486.114716 
	C406.872894,480.108124 404.480988,472.101532 406.007233,463.132324 
	C407.715790,453.091827 413.410156,445.671112 423.351288,443.253601 
	C433.491241,440.787781 442.919739,442.935425 449.782166,452.378967 
z"/>
<path fill="#000000" opacity="1.000000" stroke="none" 
	d="
M491.441376,543.144287 
	C486.107483,528.636902 496.778229,517.156250 507.322754,515.261169 
	C520.781128,512.842346 533.028442,521.203003 534.622681,534.139587 
	C535.906616,544.558105 526.315857,555.322327 514.860901,556.319519 
	C504.554718,557.216614 496.568390,552.819397 491.441376,543.144287 
z"/>
</svg>